# xmcd
#
# Track frame offsets:
# 150
# 13770
# 24635
# 42821
# 56841
# 69169
# 78897
# 91486
# 106205
# 120066
# 130905
# 142051
# 155191
# 172541
# 190486
# 199650
# 213566
# 224460
# 237939
#
# Disc length: 3338 seconds
#
#
# Revision: 0
# Processed by: cddbd v1.5.1PL2 Copyright (c) Steve Scherf et al.
# Submitted via: FreeRIP 2.944 
#
DISCID=070d0813
DTITLE=Sirano e Sirino - Nao Durmo nao Vou Embora
DYEAR=2006
DGENRE=National Folk
TTITLE0=01- Nao Durmo Nem Vou Embora - Natalicio e Sirano
TTITLE1=02- Ao Chico Locutor - Sirano
TTITLE2=03- Vou Ficando Com as Duas - Sirano
TTITLE3=04- Minhas Duas Companeiras - Sirano
TTITLE4=05- Melhor do que Amor e Fazer Amor - Sirano
TTITLE5=06- Esse Corpo nao te Pertence - Sirano
TTITLE6=07- Se For Dirigir Nao Beba - Sirano
TTITLE7=08- Chifre Tira e Paladar - Sirano
TTITLE8=09- Sofrendo Sem Merecer - Sirano
TTITLE9=10- No Tapa e no Pontape - Sirano
TTITLE10=11- Quem Procura Acha - Sirano
TTITLE11=12- Saudades do Meu Amor - Sirano e Gardel
TTITLE12=13- Boa Noite Cinderela - Sirano
TTITLE13=14- Minta e Diga Que me Ama - Sirano
TTITLE14=15- Saudade Judeia Demais - Sirano
TTITLE15=16- Se tu me deu o Teu - Sirano
TTITLE16=17- Se Disser Que nao te Quero - Sirano
TTITLE17=18- Boi Bandido - Sirano
TTITLE18=19- O Abestado Pensa que e Forro - Sirano
EXTD=
EXTT0=
EXTT1=
EXTT2=
EXTT3=
EXTT4=
EXTT5=
EXTT6=
EXTT7=
EXTT8=
EXTT9=
EXTT10=
EXTT11=
EXTT12=
EXTT13=
EXTT14=
EXTT15=
EXTT16=
EXTT17=
EXTT18=
PLAYORDER=
